REM DIRINDEX 1\2,1\4,1\3\5,1\3\6,1\3\7
REM DIRNAME folder01,folder02,folder03,folder04,folder05,folder06,folder07
TITLE ""
FILE "CD2Track57.mp3" MP3
  TRACK 01 AUDIO
    TITLE "0:"
    INDEX 01 00:00:00
  TRACK 02 AUDIO
    TITLE "4:cjc083_2453"
    INDEX 01 00:00:29
  TRACK 03 AUDIO
    TITLE "0:"
    INDEX 01 00:04:44
  TRACK 04 AUDIO
    TITLE "5:cjc083_2454"
    INDEX 01 00:05:12
  TRACK 05 AUDIO
    TITLE "0:"
    INDEX 01 00:06:24
  TRACK 06 AUDIO
    TITLE "6:cjc083_2455"
    INDEX 01 00:06:71
  TRACK 07 AUDIO
    TITLE "0:"
    INDEX 01 00:08:56
  TRACK 08 AUDIO
    TITLE "5:cjc083_2456"
    INDEX 01 00:09:20
  TRACK 09 AUDIO
    TITLE "0:"
    INDEX 01 00:10:47
  TRACK 10 AUDIO
    TITLE "6:cjc083_2457"
    INDEX 01 00:11:11
  TRACK 11 AUDIO
    TITLE "0:"
    INDEX 01 00:12:09
  TRACK 12 AUDIO
    TITLE "5:cjc083_2458"
    INDEX 01 00:12:56
  TRACK 13 AUDIO
    TITLE "0:"
    INDEX 01 00:13:71
  TRACK 14 AUDIO
    TITLE "6:cjc083_2459"
    INDEX 01 00:14:39
  TRACK 15 AUDIO
    TITLE "0:"
    INDEX 01 00:15:38
  TRACK 16 AUDIO
    TITLE "5:cjc083_2460"
    INDEX 01 00:16:10
  TRACK 17 AUDIO
    TITLE "0:"
    INDEX 01 00:17:25
  TRACK 18 AUDIO
    TITLE "6:cjc083_2461"
    INDEX 01 00:17:61
  TRACK 19 AUDIO
    TITLE "0:"
    INDEX 01 00:18:72
  TRACK 20 AUDIO
    TITLE "5:cjc083_2462"
    INDEX 01 00:19:48
  TRACK 21 AUDIO
    TITLE "0:"
    INDEX 01 00:20:63
  TRACK 22 AUDIO
    TITLE "6:cjc083_2463"
    INDEX 01 00:21:41
  TRACK 23 AUDIO
    TITLE "0:"
    INDEX 01 00:22:50
  TRACK 24 AUDIO
    TITLE "5:cjc083_2464"
    INDEX 01 00:23:20
  TRACK 25 AUDIO
    TITLE "0:"
    INDEX 01 00:24:24
  TRACK 26 AUDIO
    TITLE "6:cjc083_2465"
    INDEX 01 00:24:71
  TRACK 27 AUDIO
    TITLE "0:"
    INDEX 01 00:26:11
  TRACK 28 AUDIO
    TITLE "5:cjc083_2466"
    INDEX 01 00:26:48
  TRACK 29 AUDIO
    TITLE "0:"
    INDEX 01 00:27:73
  TRACK 30 AUDIO
    TITLE "6:cjc083_2467"
    INDEX 01 00:28:39
  TRACK 31 AUDIO
    TITLE "0:"
    INDEX 01 00:29:40
  TRACK 32 AUDIO
    TITLE "5:cjc083_2468"
    INDEX 01 00:30:08
  TRACK 33 AUDIO
    TITLE "0:"
    INDEX 01 00:31:24
  TRACK 34 AUDIO
    TITLE "6:cjc083_2469"
    INDEX 01 00:31:73
  TRACK 35 AUDIO
    TITLE "0:"
    INDEX 01 00:33:05
  TRACK 36 AUDIO
    TITLE "5:cjc083_2470"
    INDEX 01 00:33:44
  TRACK 37 AUDIO
    TITLE "0:"
    INDEX 01 00:34:57
  TRACK 38 AUDIO
    TITLE "6:cjc083_2471"
    INDEX 01 00:35:23
  TRACK 39 AUDIO
    TITLE "0:"
    INDEX 01 00:36:36
  TRACK 40 AUDIO
    TITLE "5:cjc083_2472"
    INDEX 01 00:37:03
  TRACK 41 AUDIO
    TITLE "0:"
    INDEX 01 00:38:12
  TRACK 42 AUDIO
    TITLE "6:cjc083_2473"
    INDEX 01 00:38:53
  TRACK 43 AUDIO
    TITLE "0:"
    INDEX 01 00:40:15
  TRACK 44 AUDIO
    TITLE "5:cjc083_2474"
    INDEX 01 00:40:54
  TRACK 45 AUDIO
    TITLE "0:"
    INDEX 01 00:42:16
  TRACK 46 AUDIO
    TITLE "6:cjc083_2475"
    INDEX 01 00:42:55
  TRACK 47 AUDIO
    TITLE "0:"
    INDEX 01 00:44:12
  TRACK 48 AUDIO
    TITLE "5:cjc083_2476"
    INDEX 01 00:44:56
  TRACK 49 AUDIO
    TITLE "0:"
    INDEX 01 00:46:02
  TRACK 50 AUDIO
    TITLE "6:cjc083_2477"
    INDEX 01 00:46:54
  TRACK 51 AUDIO
    TITLE "0:"
    INDEX 01 00:48:55
  TRACK 52 AUDIO
    TITLE "5:cjc083_2478"
    INDEX 01 00:49:21
  TRACK 53 AUDIO
    TITLE "0:"
    INDEX 01 00:50:33
  TRACK 54 AUDIO
    TITLE "6:cjc083_2479"
    INDEX 01 00:50:74
  TRACK 55 AUDIO
    TITLE "0:"
    INDEX 01 00:52:06
  TRACK 56 AUDIO
    TITLE "5:cjc083_2480"
    INDEX 01 00:52:45
  TRACK 57 AUDIO
    TITLE "0:"
    INDEX 01 00:53:57
  TRACK 58 AUDIO
    TITLE "6:cjc083_2481"
    INDEX 01 00:54:25
  TRACK 59 AUDIO
    TITLE "0:"
    INDEX 01 00:55:48
  TRACK 60 AUDIO
    TITLE "5:cjc083_2482"
    INDEX 01 00:56:14
  TRACK 61 AUDIO
    TITLE "0:"
    INDEX 01 00:57:25
  TRACK 62 AUDIO
    TITLE "6:cjc083_2483"
    INDEX 01 00:57:70
  TRACK 63 AUDIO
    TITLE "0:"
    INDEX 01 00:59:30
  TRACK 64 AUDIO
    TITLE "5:cjc083_2484"
    INDEX 01 00:59:73
  TRACK 65 AUDIO
    TITLE "0:"
    INDEX 01 01:01:05
  TRACK 66 AUDIO
    TITLE "6:cjc083_2485"
    INDEX 01 01:01:54
  TRACK 67 AUDIO
    TITLE "0:"
    INDEX 01 01:04:07
  TRACK 68 AUDIO
    TITLE "5:cjc083_2486"
    INDEX 01 01:04:50
  TRACK 69 AUDIO
    TITLE "0:"
    INDEX 01 01:05:68
  TRACK 70 AUDIO
    TITLE "6:cjc083_2487"
    INDEX 01 01:06:32
  TRACK 71 AUDIO
    TITLE "0:"
    INDEX 01 01:07:59
  TRACK 72 AUDIO
    TITLE "5:cjc083_2488"
    INDEX 01 01:08:23
  TRACK 73 AUDIO
    TITLE "0:"
    INDEX 01 01:09:32
  TRACK 74 AUDIO
    TITLE "6:cjc083_2489"
    INDEX 01 01:10:04
  TRACK 75 AUDIO
    TITLE "0:"
    INDEX 01 01:11:56
  TRACK 76 AUDIO
    TITLE "5:cjc083_2490"
    INDEX 01 01:12:26
  TRACK 77 AUDIO
    TITLE "0:"
    INDEX 01 01:13:45
  TRACK 78 AUDIO
    TITLE "6:cjc083_2491"
    INDEX 01 01:14:16
  TRACK 79 AUDIO
    TITLE "0:"
    INDEX 01 01:15:09
  TRACK 80 AUDIO
    TITLE "7:cjc083_2492"
    INDEX 01 01:16:48
  TRACK 81 AUDIO
    TITLE "0:"
    INDEX 01 01:26:42
